<?xml version="1.0" encoding="UTF-8"?>
<svg id="Layer_2" data-name="Layer 2" xmlns="http://www.w3.org/2000/svg" viewBox="0 0 90.4 96.42">
  <defs>
    <style>
      .cls-1, .cls-2 {
        fill: #089bac;
        stroke-width: 0px;
      }

      .cls-2 {
        fill-rule: evenodd;
      }
    </style>
  </defs>
  <g id="Layer_1-2" data-name="Layer 1">
    <g>
      <path class="cls-2" d="m48.21,24.11c1.66,0,3.01,1.35,3.01,3.01v3.82l3.31-1.91c1.44-.84,3.28-.36,4.12,1.08.84,1.44.36,3.28-1.08,4.12-.01,0-.02.01-.03.02l-3.31,1.91,3.31,1.91c1.45.82,1.95,2.66,1.13,4.11-.82,1.45-2.66,1.95-4.11,1.13-.01,0-.02-.01-.03-.02l-3.31-1.91v3.82c0,1.66-1.35,3.01-3.01,3.01s-3.01-1.35-3.01-3.01v-3.82l-3.31,1.91c-1.44.84-3.28.36-4.12-1.08-.84-1.44-.36-3.28,1.08-4.12.01,0,.02-.01.03-.02l3.31-1.91-3.31-1.91c-1.44-.84-1.92-2.69-1.08-4.12.83-1.42,2.66-1.91,4.09-1.1l3.31,1.91v-3.82c0-1.66,1.35-3.01,3.01-3.01m-18.08,33.15c0-1.66,1.35-3.01,3.01-3.01h30.13c1.66,0,3.01,1.35,3.01,3.01s-1.35,3.01-3.01,3.01h-30.13c-1.66,0-3.01-1.35-3.01-3.01m0,12.05c0-1.66,1.35-3.01,3.01-3.01h30.13c1.66,0,3.01,1.35,3.01,3.01s-1.35,3.01-3.01,3.01h-30.13c-1.66,0-3.01-1.35-3.01-3.01"/>
      <path class="cls-1" d="m18.08,0h60.26c6.66,0,12.05,5.4,12.05,12.05v72.32c0,6.66-5.4,12.05-12.05,12.05H18.08c-6.66,0-12.05-5.4-12.05-12.05v-6.03h6.03v6.03c0,3.33,2.7,6.03,6.03,6.03h60.26c3.33,0,6.03-2.7,6.03-6.03V12.05c0-3.33-2.7-6.03-6.03-6.03H18.08c-3.33,0-6.03,2.7-6.03,6.03v6.03h-6.03v-6.03C6.03,5.4,11.42,0,18.08,0"/>
      <path class="cls-1" d="m6.03,30.13v-3.01c0-1.66,1.35-3.01,3.01-3.01s3.01,1.35,3.01,3.01v3.01h3.01c1.66,0,3.01,1.35,3.01,3.01s-1.35,3.01-3.01,3.01H3.01c-1.66,0-3.01-1.35-3.01-3.01s1.35-3.01,3.01-3.01h3.01Zm0,18.08v-3.01c0-1.66,1.35-3.01,3.01-3.01s3.01,1.35,3.01,3.01v3.01h3.01c1.66,0,3.01,1.35,3.01,3.01s-1.35,3.01-3.01,3.01H3.01c-1.66,0-3.01-1.35-3.01-3.01s1.35-3.01,3.01-3.01h3.01Zm0,18.08v-3.01c0-1.66,1.35-3.01,3.01-3.01s3.01,1.35,3.01,3.01v3.01h3.01c1.66,0,3.01,1.35,3.01,3.01s-1.35,3.01-3.01,3.01H3.01c-1.66,0-3.01-1.35-3.01-3.01s1.35-3.01,3.01-3.01h3.01Z"/>
    </g>
  </g>
</svg>