<?xml version="1.0" encoding="UTF-8"?>
<svg id="Layer_2" data-name="Layer 2" xmlns="http://www.w3.org/2000/svg" viewBox="0 0 363.88 372.51">
  <defs>
    <style>
      .cls-1, .cls-2, .cls-3 {
        fill: #089bac;
      }

      .cls-1, .cls-3 {
        stroke-width: 0px;
      }

      .cls-2 {
        font-family: Poppins-Bold, Poppins;
        font-size: 72px;
        font-weight: 700;
      }

      .cls-3 {
        fill-rule: evenodd;
      }
    </style>
  </defs>
  <g id="Layer_1-2" data-name="Layer 1">
    <g>
      <g>
        <path class="cls-3" d="m186.8,38.86c2.68,0,4.86,2.17,4.86,4.86v6.16l5.33-3.08c2.31-1.36,5.29-.58,6.65,1.73,1.36,2.31.58,5.29-1.73,6.65-.02.01-.04.02-.06.03l-5.33,3.08,5.33,3.08c2.33,1.33,3.15,4.29,1.82,6.62-1.33,2.33-4.29,3.15-6.62,1.82-.02-.01-.04-.02-.06-.03l-5.33-3.08v6.16c0,2.68-2.17,4.86-4.86,4.86s-4.86-2.17-4.86-4.86v-6.16l-5.33,3.08c-2.31,1.36-5.29.58-6.65-1.73-1.36-2.31-.58-5.29,1.73-6.65.02-.01.04-.02.06-.03l5.33-3.08-5.33-3.08c-2.31-1.36-3.09-4.33-1.73-6.65,1.34-2.29,4.28-3.08,6.59-1.77l5.33,3.08v-6.16c0-2.68,2.17-4.86,4.86-4.86m-29.14,53.43c0-2.68,2.17-4.86,4.86-4.86h48.57c2.68,0,4.86,2.17,4.86,4.86s-2.17,4.86-4.86,4.86h-48.57c-2.68,0-4.86-2.17-4.86-4.86m0,19.43c0-2.68,2.17-4.86,4.86-4.86h48.57c2.68,0,4.86,2.17,4.86,4.86s-2.17,4.86-4.86,4.86h-48.57c-2.68,0-4.86-2.17-4.86-4.86"/>
        <path class="cls-1" d="m138.23,0h97.14c10.73,0,19.43,8.7,19.43,19.43v116.57c0,10.73-8.7,19.43-19.43,19.43h-97.14c-10.73,0-19.43-8.7-19.43-19.43v-9.71h9.71v9.71c0,5.36,4.35,9.71,9.71,9.71h97.14c5.36,0,9.71-4.35,9.71-9.71V19.43c0-5.36-4.35-9.71-9.71-9.71h-97.14c-5.36,0-9.71,4.35-9.71,9.71v9.71h-9.71v-9.71c0-10.73,8.7-19.43,19.43-19.43"/>
        <path class="cls-1" d="m118.8,48.57v-4.86c0-2.68,2.17-4.86,4.86-4.86s4.86,2.17,4.86,4.86v4.86h4.86c2.68,0,4.86,2.17,4.86,4.86s-2.17,4.86-4.86,4.86h-19.43c-2.68,0-4.86-2.17-4.86-4.86s2.17-4.86,4.86-4.86h4.86Zm0,29.14v-4.86c0-2.68,2.17-4.86,4.86-4.86s4.86,2.17,4.86,4.86v4.86h4.86c2.68,0,4.86,2.17,4.86,4.86s-2.17,4.86-4.86,4.86h-19.43c-2.68,0-4.86-2.17-4.86-4.86s2.17-4.86,4.86-4.86h4.86Zm0,29.14v-4.86c0-2.68,2.17-4.86,4.86-4.86s4.86,2.17,4.86,4.86v4.86h4.86c2.68,0,4.86,2.17,4.86,4.86s-2.17,4.86-4.86,4.86h-19.43c-2.68,0-4.86-2.17-4.86-4.86s2.17-4.86,4.86-4.86h4.86Z"/>
      </g>
      <text class="cls-2" transform="translate(89.03 242.48)"><tspan x="0" y="0">virus</tspan><tspan x="-89.03" y="86.4">diagnosis</tspan></text>
    </g>
  </g>
</svg>